#!OML:ASF E:\emotionWalksFemale\Project 1\Capture day 1\Session 1\Female1.ASF
:FULLY-SPECIFIED
:DEGREES
1130
root 2.47187 15.2973 -35.7471 179.682 83.0314 -178.148
lowerback 1.97566 -2.29819 -1.41738
upperback -6.8784 -2.96309 0.774953
thorax -8.19948 -1.26671 1.86258
lowerneck -12.9389 -4.86761 -7.69291
upperneck 19.3151 -6.647 8.19035
head 8.69228 -2.80457 3.29484
rclavicle -2.48978e-014 4.17448e-015
rhumerus 22.4562 4.67003 -36.0681
rradius 27.7182
rwrist 21.6223
rhand -7.60724 -47.544
rfingers 7.12502
rthumb -161.713 -256.704
lclavicle -2.48978e-014 4.17448e-015
lhumerus 22.7033 -11.7147 58.4469
lradius 27.7658
lwrist -34.9548
lhand -4.2502 -42.3612
lfingers 7.12502
lthumb 21.5137 -13.536
rfemur -14.1701 28.1525 20.0123
rtibia 13.1395
rfoot -36.1013 -40.5099
rtoes 32.8232
lfemur 16.9938 -4.12721 -18.3567
ltibia 32.5726
lfoot 5.29285 11.0421
ltoes -4.97015
1131
root 2.60728 15.3386 -35.7283 185.152 83.2654 -172.549
lowerback 2.14884 -2.24989 -0.647513
upperback -6.88848 -2.8233 1.14238
thorax -8.33607 -1.23202 1.81594
lowerneck -12.7337 -4.75168 -7.50702
upperneck 18.9902 -6.48415 8.01228
head 8.5175 -2.74277 3.22212
rclavicle -1.38155e-014 3.77691e-015
rhumerus 22.5399 4.54812 -36.4114
rradius 27.5782
rwrist 21.5282
rhand -7.73782 -47.6096
rfingers 7.12502
rthumb -161.839 -256.782
lclavicle -1.38155e-014 3.77691e-015
lhumerus 22.5843 -11.9245 58.3358
lradius 27.9069
lwrist -34.7449
lhand -4.03922 -42.1392
lfingers 7.12502
lthumb 21.7163 -13.3372
rfemur -12.7827 28.8766 20.8501
rtibia 11.9395
rfoot -39.6623 -37.4821
rtoes 41.5757
lfemur 15.8997 -3.40271 -17.0661
ltibia 35.0391
lfoot 7.57039 9.91089
ltoes -10.9179
1132
root 2.73264 15.3628 -35.714 189.078 83.3733 -168.436
lowerback 2.40024 -2.23993 -0.0488537
upperback -6.85122 -2.74938 1.43887
thorax -8.46048 -1.22268 1.79802
lowerneck -12.6071 -4.65859 -7.62732
upperneck 18.7405 -6.366 8.21462
head 8.41091 -2.68253 3.32465
rclavicle -1.17283e-014 -2.38542e-015
rhumerus 22.6237 4.17999 -36.9888
rradius 27.3798
rwrist 21.8822
rhand -7.68986 -47.6302
rfingers 7.12502
rthumb -161.793 -256.798
lclavicle -1.17283e-014 -2.38542e-015
lhumerus 22.4876 -12.0639 58.1855
lradius 28.004
lwrist -34.6248
lhand -3.95442 -42.115
lfingers 7.12502
lthumb 21.7977 -13.3225
rfemur -11.1334 27.02 22.0274
rtibia 10.3836
rfoot -37.5428 -35.7892
rtoes 44.1318
lfemur 14.7358 -3.03863 -16.1316
ltibia 37.6459
lfoot 9.25316 9.09835
ltoes -8.81872
1133
root 2.85049 15.3699 -35.7037 190.4 83.5121 -166.943
lowerback 2.69357 -2.1059 0.246046
upperback -6.68703 -2.55172 1.50999
thorax -8.47 -1.14619 1.6977
lowerneck -13.0988 -4.7027 -7.40775
upperneck 18.7809 -6.48551 8.3849
head 8.52334 -2.69426 3.32477
rclavicle -1.39149e-014 -1.59028e-015
rhumerus 22.4932 3.14231 -37.8729
rradius 27.0712
rwrist 22.6862
rhand -7.85444 -47.4092
rfingers 7.12502
rthumb -161.951 -256.592
lclavicle -1.39149e-014 -1.59028e-015
lhumerus 22.8409 -12.3023 58.0295
lradius 28.0819
lwrist -34.6612
lhand -3.96383 -42.202
lfingers 7.12502
lthumb 21.7887 -13.4085
rfemur -10.3015 26.1417 22.6744
rtibia 9.05978
rfoot -26.6142 -41.7752
rtoes 29.3768
lfemur 13.5286 -2.744 -15.6285
ltibia 40.1453
lfoot 10.5798 8.63984
ltoes -3.73301
1134
root 2.96716 15.3714 -35.6893 190.751 83.7962 -166.471
lowerback 2.8512 -2.17182 0.197899
upperback -6.70967 -2.6184 1.80288
thorax -8.5707 -1.16214 2.04763
lowerneck -12.9254 -4.521 -7.6005
upperneck 18.8561 -6.21557 8.45181
head 8.50144 -2.57642 3.41662
rclavicle -4.17448e-015 -5.96354e-015
rhumerus 23.0471 2.47543 -39.4334
rradius 26.3782
rwrist 24.1443
rhand -8.25704 -47.1618
rfingers 7.12502
rthumb -162.338 -256.38
lclavicle -4.17448e-015 -5.96354e-015
lhumerus 22.5197 -12.2882 57.8271
lradius 28.1138
lwrist -34.4048
lhand -3.9251 -42.0991
lfingers 7.12502
lthumb 21.8259 -13.3099
rfemur -9.82865 25.4036 23.2597
rtibia 8.26437
rfoot -7.15675 -46.0926
rtoes -3.37703
lfemur 12.3085 -2.28521 -15.2919
ltibia 42.4671
lfoot 12.0417 7.93304
ltoes -3.42853
1135
root 3.08842 15.4038 -35.6658 190.89 84.072 -166.213
lowerback 3.04313 -2.16 0.141994
upperback -6.64456 -2.5948 1.98584
thorax -8.60297 -1.14054 2.27626
lowerneck -13.2545 -4.483 -7.65442
upperneck 19.0798 -6.14542 8.45681
head 8.6329 -2.53641 3.43459
rclavicle -2.32578e-014 -7.95139e-015
rhumerus 22.9635 3.34373 -39.186
rradius 26.6226
rwrist 22.962
rhand -8.38918 -47.4429
rfingers 7.12502
rthumb -162.466 -256.672
lclavicle -2.32578e-014 -7.95139e-015
lhumerus 22.5879 -12.4195 57.5358
lradius 28.079
lwrist -34.1386
lhand -3.95553 -42.0083
lfingers 7.12502
lthumb 21.7967 -13.2157
rfemur -8.66123 24.6339 23.7131
rtibia 7.78413
rfoot -15.0566 -43.02
rtoes 15.9117
lfemur 11.1104 -1.72854 -14.9609
ltibia 44.5993
lfoot 13.4736 6.60802
ltoes -9.97115
1136
root 3.20997 15.4475 -35.6436 190.293 84.172 -166.584
lowerback 3.38742 -2.20301 0.153851
upperback -6.62071 -2.638 2.14762
thorax -8.7723 -1.15451 2.46082
lowerneck -13.2798 -4.37757 -7.77567
upperneck 19.1843 -5.98434 8.50436
head 8.6636 -2.46237 3.49253
rclavicle -5.14852e-014 1.70955e-014
rhumerus 22.773 4.06496 -39.1537
rradius 26.8229
rwrist 22.1629
rhand -8.45952 -47.591
rfingers 7.12502
rthumb -162.533 -256.826
lclavicle -5.14852e-014 1.70955e-014
lhumerus 22.4322 -12.5504 57.2868
lradius 28.1493
lwrist -33.9195
lhand -4.05571 -42.13
lfingers 7.12502
lthumb 21.7005 -13.3263
rfemur -7.97441 23.6422 24.0797
rtibia 8.82795
rfoot -24.0525 -37.7622
rtoes 35.7925
lfemur 10.0861 -1.16048 -14.7641
ltibia 46.3769
lfoot 14.6803 4.32498
ltoes -25.9411
1137
root 3.32591 15.4663 -35.625 188.418 84.2544 -168.215
lowerback 3.62811 -2.23549 -0.0541771
upperback -6.56405 -2.68835 2.29661
thorax -8.83421 -1.15968 2.74998
lowerneck -13.134 -4.28252 -7.74871
upperneck 19.1978 -5.85594 8.46314
head 8.62737 -2.40637 3.49175
rclavicle -3.77691e-015 -2.38542e-015
rhumerus 22.7023 4.11115 -39.6657
rradius 26.6911
rwrist 22.3366
rhand -8.65521 -47.326
rfingers 7.12502
rthumb -162.722 -256.578
lclavicle -3.77691e-015 -2.38542e-015
lhumerus 22.4047 -12.5556 57.1986
lradius 28.0957
lwrist -33.9279
lhand -4.15251 -42.1859
lfingers 7.12502
lthumb 21.6075 -13.3715
rfemur -7.65345 22.6283 24.3794
rtibia 10.2587
rfoot -28.4051 -33.3255
rtoes 45.2162
lfemur 9.10595 -1.66867 -14.9268
ltibia 48.1438
lfoot 13.3942 7.26592
ltoes -4.0558
1138
root 3.44513 15.5022 -35.6044 185.414 84.3148 -171.02
lowerback 3.79953 -2.20722 -0.26969
upperback -6.48142 -2.67629 2.26538
thorax -8.837 -1.14332 2.84162
lowerneck -13.2164 -4.3133 -7.4787
upperneck 19.3745 -5.93333 8.33655
head 8.69691 -2.42966 3.39515
rclavicle -2.34566e-014 -3.97569e-015
rhumerus 22.4494 4.23513 -40.056
rradius 26.5374
rwrist 22.3104
rhand -8.77349 -47.1297
rfingers 7.12502
rthumb -162.836 -256.392
lclavicle -2.34566e-014 -3.97569e-015
lhumerus 22.7506 -12.2418 57.6041
lradius 27.667
lwrist -34.8377
lhand -4.38607 -42.2684
lfingers 7.12502
lthumb 21.3832 -13.4283
rfemur -7.38904 23.9546 24.2317
rtibia 11.5336
rfoot -32.4644 -31.4491
rtoes 50.861
lfemur 8.12672 -1.65423 -15.1627
ltibia 49.6756
lfoot 12.4942 7.53035
ltoes -4.49242
1139
root 3.55893 15.4939 -35.5902 183.118 84.3285 -173.109
lowerback 4.01572 -2.1382 -0.427231
upperback -6.43522 -2.59558 2.31064
thorax -8.90935 -1.09163 2.9779
lowerneck -13.4793 -4.41189 -7.60398
upperneck 19.7696 -6.0534 8.37085
head 8.89596 -2.47864 3.41599
rclavicle -3.02153e-014 -1.59028e-015
rhumerus 22.115 5.24822 -39.5801
rradius 26.5646
rwrist 21.3193
rhand -8.78838 -47.2931
rfingers 7.12502
rthumb -162.85 -256.556
lclavicle -3.02153e-014 -1.59028e-015
lhumerus 22.9151 -13.2502 56.808
lradius 27.9661
lwrist -33.8398
lhand -4.48101 -42.2735
lfingers 7.12502
lthumb 21.292 -13.4231
rfemur -7.37695 21.5 24.9013
rtibia 12.2832
rfoot -23.4394 -34.995
rtoes 40.8377
lfemur 7.04501 -1.14773 -15.2161
ltibia 51.2592
lfoot 11.9495 6.0579
ltoes -21.0332
1140
root 3.67628 15.4954 -35.5717 181.817 84.3693 -174.229
lowerback 4.041 -2.09571 -0.345371
upperback -6.34535 -2.5397 2.26937
thorax -8.83397 -1.07493 2.87988
lowerneck -13.4201 -4.44723 -7.57642
upperneck 19.7472 -6.12358 8.43286
head 8.88485 -2.50382 3.42456
rclavicle 1.31198e-014 1.90833e-014
rhumerus 21.9176 6.74552 -39.0316
rradius 26.6328
rwrist 19.8298
rhand -8.89483 -47.6743
rfingers 7.12502
rthumb -162.952 -256.946
lclavicle 1.31198e-014 1.90833e-014
lhumerus 23.1799 -14.0913 55.9036
lradius 28.2413
lwrist -32.9036
lhand -4.52786 -42.1315
lfingers 7.12502
lthumb 21.247 -13.276
rfemur -6.83328 21.5294 25.2398
rtibia 12.7071
rfoot -22.8523 -34.9253
rtoes 42.6508
lfemur 5.9723 -0.591085 -15.1169
ltibia 52.6853
lfoot 11.085 4.92235
ltoes -33.452
